<svg xmlns="http://www.w3.org/2000/svg" width="64" height="64" viewBox="0 0 24 24" fill="none">
  <path d="M11.053 3.304c.35-.897 1.544-.897 1.894 0l1.89 4.848a1 1 0 0 0 .873.63l5.193.36c.963.067 1.352 1.283.62 1.917l-3.964 3.433a1 1 0 0 0-.323 1.018l1.204 5.044c.223.934-.793 1.667-1.611 1.163l-4.46-2.74a1 1 0 0 0-1.05 0l-4.46 2.74c-.818.504-1.834-.229-1.61-1.163l1.203-5.044a1 1 0 0 0-.322-1.018L2.277 11.06c-.733-.634-.344-1.85.62-1.917l5.193-.36a1 1 0 0 0 .873-.63l1.89-4.848Z" fill="#FFD700"/>
</svg>
